#!OML:ASF H:\GeneralSubjects\Female5\Project 1\Capture day 1\Session 1\Female5.ASF
:FULLY-SPECIFIED
:DEGREES
576
root -36.3864 16.0532 -1.71607 1254.6 284.904 -529.537
lowerback 11.038 -0.363887 -5.93234
upperback -11.0239 -1.24802 6.08753
thorax -18.9459 0.720128 11.0717
lowerneck -14.0236 3.17163 0.99606
upperneck 30.3441 2.97686 1.54651
head 12.333 1.30385 0.773432
rclavicle -2.38542e-015 -1.90833e-014
rhumerus -55.0228 28.8216 -84.9924
rradius 39.588
rwrist -13.2344
rhand -21.6508 -21.4572
rfingers 7.12502
rthumb 4.74596 -51.384
lclavicle -2.38542e-015 -1.90833e-014
lhumerus -49.8332 6.72082 83.7156
lradius 30.0099
lwrist -10.0398
lhand -18.1487 25.3341
lfingers 7.12502
lthumb 8.12683 55.1579
rfemur -7.03007 8.11148 34.2498
rtibia 4.71877
rfoot -9.88638 -19.7768
rtoes -2.80685
lfemur -12.3733 -4.08959 -24.1117
ltibia 41.3075
lfoot -26.0783 -15.3751
ltoes -29.4396
577
root -36.445 16.077 -1.71776 1254.4 285.453 -529.169
lowerback 11.3429 -0.245562 -5.8358
upperback -11.0428 -1.07472 6.11121
thorax -19.2252 0.810812 11.0293
lowerneck -14.3705 3.13506 0.950208
upperneck 30.339 2.86536 1.7911
head 12.3987 1.2859 0.864774
rclavicle -1.94809e-014 4.92986e-014
rhumerus -54.625 28.5045 -84.5477
rradius 40.3898
rwrist -13.3168
rhand -19.9103 -23.3683
rfingers 7.12502
rthumb 6.42643 -53.2508
lclavicle -1.94809e-014 4.92986e-014
lhumerus -50.297 7.90224 82.5517
lradius 28.5105
lwrist -11.3827
lhand -18.0382 25.2119
lfingers 7.12502
lthumb 8.23346 55.0315
rfemur -7.10941 8.99345 34.4259
rtibia 4.94583
rfoot -10.429 -19.9774
rtoes -1.67318
lfemur -13.1285 -5.75299 -23.3672
ltibia 39.6846
lfoot -25.5245 -14.984
ltoes -28.9431
578
root -36.5496 16.0962 -1.72053 1253.11 285.751 -527.868
lowerback 10.7534 -0.292569 -5.33086
upperback -10.6595 -0.993118 6.135
thorax -18.3194 0.70049 10.6411
lowerneck -14.9004 3.05743 0.900483
upperneck 30.1003 2.67861 2.15899
head 12.4072 1.26157 0.994131
rclavicle 5.1684e-015 0
rhumerus -53.6274 27.9732 -83.9197
rradius 41.2796
rwrist -14.5566
rhand -18.9458 -25.6865
rfingers 7.12502
rthumb 7.3575 -55.5386
lclavicle 5.1684e-015 0
lhumerus -50.042 8.97049 81.2931
lradius 26.9754
lwrist -12.1593
lhand -17.8368 25.352
lfingers 7.12502
lthumb 8.42784 55.1638
rfemur -6.30464 9.13445 34.9121
rtibia 4.48489
rfoot -10.9083 -19.7297
rtoes -0.238787
lfemur -13.1147 -7.77628 -22.6499
ltibia 37.4921
lfoot -24.9522 -15.6743
ltoes -29.4027
579
root -36.6278 16.1181 -1.71364 1254.9 285.913 -529.576
lowerback 10.9448 -0.226794 -5.72027
upperback -10.8489 -1.01393 5.97741
thorax -18.7014 0.761993 10.7198
lowerneck -14.6971 2.96961 0.842831
upperneck 29.9874 2.4978 2.3734
head 12.3163 1.20069 1.05269
rclavicle -4.37326e-015 1.59028e-014
rhumerus -54.5377 28.481 -84.7809
rradius 40.9482
rwrist -14.9937
rhand -22.9267 -21.7411
rfingers 7.12502
rthumb 3.5139 -51.6919
lclavicle -4.37326e-015 1.59028e-014
lhumerus -50.8591 10.104 79.8685
lradius 25.9273
lwrist -12.7298
lhand -17.6458 26.1981
lfingers 7.12502
lthumb 8.61212 56.0024
rfemur -6.41976 9.57303 34.3906
rtibia 5.10958
rfoot -11.7856 -19.54
rtoes 0.763667
lfemur -13.6175 -9.82585 -22.8606
ltibia 35.6432
lfoot -23.6393 -16.5177
ltoes -30.4137
580
root -36.7015 16.1386 -1.70567 1257.18 286.03 -531.815
lowerback 11.1727 -0.162344 -6.34932
upperback -11.0321 -1.09171 5.79595
thorax -19.0946 0.833005 10.927
lowerneck -14.2658 2.88027 0.789849
upperneck 29.6936 2.33292 2.55925
head 12.1068 1.14416 1.09528
rclavicle 2.38542e-015 -7.95139e-015
rhumerus -54.3872 28.0514 -84.0919
rradius 41.7812
rwrist -15.375
rhand -20.3135 -25.0352
rfingers 7.12502
rthumb 6.03717 -54.9292
lclavicle 2.38542e-015 -7.95139e-015
lhumerus -51.7117 11.3996 78.2107
lradius 25.2211
lwrist -13.3413
lhand -17.6209 27.1416
lfingers 7.12502
lthumb 8.63616 56.945
rfemur -6.42206 9.97462 33.6616
rtibia 5.37535
rfoot -12.0479 -19.7009
rtoes -0.31314
lfemur -14.1321 -12.0287 -23.1736
ltibia 33.8197
lfoot -21.0792 -16.5735
ltoes -30.9127
581
root -36.7778 16.1467 -1.69251 1255.93 286.129 -530.731
lowerback 10.879 -0.230872 -5.9704
upperback -10.5523 -1.05797 5.8043
thorax -18.253 0.725 10.6223
lowerneck -14.7474 2.7166 0.714034
upperneck 29.313 2.07574 2.8178
head 12.0539 1.07259 1.17315
rclavicle 1.03368e-014 -1.11319e-014
rhumerus -53.4639 27.915 -83.7829
rradius 41.762
rwrist -15.1873
rhand -20.4079 -24.8386
rfingers 7.12502
rthumb 5.94606 -54.7352
lclavicle 1.03368e-014 -1.11319e-014
lhumerus -51.2382 12.6156 76.7176
lradius 24.5106
lwrist -13.7151
lhand -17.7754 27.7369
lfingers 7.12502
lthumb 8.48707 57.5464
rfemur -5.09403 10.0034 34.0314
rtibia 3.78773
rfoot -11.0334 -20.2343
rtoes -2.96372
lfemur -14.1946 -14.5596 -22.5166
ltibia 32.0183
lfoot -18.718 -16.5755
ltoes -31.465
582
root -36.8461 16.152 -1.68502 1255.82 286.254 -530.727
lowerback 10.9124 -0.2214 -6.06517
upperback -10.402 -1.05305 5.78608
thorax -18.0801 0.725189 10.64
lowerneck -15.1111 2.44528 0.460809
upperneck 29.412 1.66573 3.07169
head 12.1683 0.895015 1.25988
rclavicle -2.18663e-014 6.04305e-014
rhumerus -53.443 28.013 -83.8933
rradius 41.8212
rwrist -16.0906
rhand -20.7092 -24.0406
rfingers 7.12502
rthumb 5.65516 -53.9451
lclavicle -2.18663e-014 6.04305e-014
lhumerus -51.3321 13.4428 75.4405
lradius 23.9924
lwrist -13.965
lhand -17.627 28.0519
lfingers 7.12502
lthumb 8.6303 57.8555
rfemur -4.67033 10.6164 34.0968
rtibia 3.7734
rfoot -11.2595 -20.7768
rtoes -4.11503
lfemur -14.4014 -17.2938 -22.0522
ltibia 30.4511
lfoot -17.1239 -16.8366
ltoes -31.1762
